<svg width="258" height="109" viewBox="0 0 258 109" fill="none" xmlns="http://www.w3.org/2000/svg">
<circle cx="253.092" cy="3.23196" r="3.23196" transform="rotate(90 253.092 3.23196)" fill="#C2F8D3" fill-opacity="0.73"/>
<circle cx="110.885" cy="3.23196" r="3.23196" transform="rotate(90 110.885 3.23196)" fill="#C2F8D3" fill-opacity="0.73"/>
<circle cx="252.168" cy="71.5647" r="3.23196" transform="rotate(90 252.168 71.5647)" fill="#C2F8D3" fill-opacity="0.73"/>
<circle cx="109.962" cy="71.5647" r="3.23196" transform="rotate(90 109.962 71.5647)" fill="#C2F8D3" fill-opacity="0.73"/>
<circle cx="181.989" cy="3.23196" r="3.23196" transform="rotate(90 181.989 3.23196)" fill="#C2F8D3" fill-opacity="0.73"/>
<circle cx="39.7822" cy="3.23196" r="3.23196" transform="rotate(90 39.7822 3.23196)" fill="#C2F8D3" fill-opacity="0.73"/>
<circle cx="181.065" cy="71.5647" r="3.23196" transform="rotate(90 181.065 71.5647)" fill="#C2F8D3" fill-opacity="0.73"/>
<circle cx="38.8591" cy="71.5647" r="3.23196" transform="rotate(90 38.8591 71.5647)" fill="#C2F8D3" fill-opacity="0.73"/>
<circle cx="218.002" cy="3.23196" r="3.23196" transform="rotate(90 218.002 3.23196)" fill="#C2F8D3" fill-opacity="0.73"/>
<circle cx="75.7956" cy="3.23196" r="3.23196" transform="rotate(90 75.7956 3.23196)" fill="#C2F8D3" fill-opacity="0.73"/>
<circle cx="217.078" cy="71.5647" r="3.23196" transform="rotate(90 217.078 71.5647)" fill="#C2F8D3" fill-opacity="0.73"/>
<circle cx="74.872" cy="71.5647" r="3.23196" transform="rotate(90 74.872 71.5647)" fill="#C2F8D3" fill-opacity="0.73"/>
<circle cx="146.899" cy="3.23196" r="3.23196" transform="rotate(90 146.899 3.23196)" fill="#C2F8D3" fill-opacity="0.73"/>
<circle cx="4.69248" cy="3.23196" r="3.23196" transform="rotate(90 4.69248 3.23196)" fill="#C2F8D3" fill-opacity="0.73"/>
<circle cx="145.975" cy="71.5647" r="3.23196" transform="rotate(90 145.975 71.5647)" fill="#C2F8D3" fill-opacity="0.73"/>
<circle cx="3.76926" cy="71.5647" r="3.23196" transform="rotate(90 3.76926 71.5647)" fill="#C2F8D3" fill-opacity="0.73"/>
<circle cx="218.002" cy="37.3983" r="3.23196" transform="rotate(90 218.002 37.3983)" fill="#C2F8D3" fill-opacity="0.73"/>
<circle cx="75.7956" cy="37.3983" r="3.23196" transform="rotate(90 75.7956 37.3983)" fill="#C2F8D3" fill-opacity="0.73"/>
<circle cx="217.078" cy="105.731" r="3.23196" transform="rotate(90 217.078 105.731)" fill="#C2F8D3" fill-opacity="0.73"/>
<circle cx="74.872" cy="105.731" r="3.23196" transform="rotate(90 74.872 105.731)" fill="#C2F8D3" fill-opacity="0.73"/>
<circle cx="146.899" cy="37.3983" r="3.23196" transform="rotate(90 146.899 37.3983)" fill="#C2F8D3" fill-opacity="0.73"/>
<circle cx="4.69248" cy="37.3983" r="3.23196" transform="rotate(90 4.69248 37.3983)" fill="#C2F8D3" fill-opacity="0.73"/>
<circle cx="145.975" cy="105.731" r="3.23196" transform="rotate(90 145.975 105.731)" fill="#C2F8D3" fill-opacity="0.73"/>
<circle cx="3.76926" cy="105.731" r="3.23196" transform="rotate(90 3.76926 105.731)" fill="#C2F8D3" fill-opacity="0.73"/>
<circle cx="254.015" cy="37.3983" r="3.23196" transform="rotate(90 254.015 37.3983)" fill="#C2F8D3" fill-opacity="0.73"/>
<circle cx="111.809" cy="37.3983" r="3.23196" transform="rotate(90 111.809 37.3983)" fill="#C2F8D3" fill-opacity="0.73"/>
<circle cx="253.092" cy="105.731" r="3.23196" transform="rotate(90 253.092 105.731)" fill="#C2F8D3" fill-opacity="0.73"/>
<circle cx="110.885" cy="105.731" r="3.23196" transform="rotate(90 110.885 105.731)" fill="#C2F8D3" fill-opacity="0.73"/>
<circle cx="182.912" cy="37.3983" r="3.23196" transform="rotate(90 182.912 37.3983)" fill="#C2F8D3" fill-opacity="0.73"/>
<circle cx="40.7058" cy="37.3983" r="3.23196" transform="rotate(90 40.7058 37.3983)" fill="#C2F8D3" fill-opacity="0.73"/>
<circle cx="181.989" cy="105.731" r="3.23196" transform="rotate(90 181.989 105.731)" fill="#C2F8D3" fill-opacity="0.73"/>
<circle cx="39.7822" cy="105.731" r="3.23196" transform="rotate(90 39.7822 105.731)" fill="#C2F8D3" fill-opacity="0.73"/>
</svg>
